<svg width="30" height="30" viewBox="0 0 30 30" fill="none" xmlns="http://www.w3.org/2000/svg">
<path d="M17.285 11.1425H10.3038C9.97223 11.1425 9.65429 11.0108 9.41987 10.7764C9.18545 10.542 9.05375 10.224 9.05375 9.89249C9.05375 9.56097 9.18545 9.24303 9.41987 9.00861C9.65429 8.77419 9.97223 8.64249 10.3038 8.64249H20.3038C20.468 8.642 20.6308 8.67399 20.7827 8.73663C20.9346 8.79928 21.0726 8.89133 21.1887 9.0075C21.3049 9.12368 21.397 9.26167 21.4596 9.41355C21.5223 9.56543 21.5542 9.7282 21.5538 9.89249V19.8925C21.5538 20.224 21.4221 20.542 21.1876 20.7764C20.9532 21.0108 20.6353 21.1425 20.3038 21.1425C19.9722 21.1425 19.6543 21.0108 19.4199 20.7764C19.1854 20.542 19.0538 20.224 19.0538 19.8925V12.91L10.58 21.3837C10.3455 21.6181 10.0274 21.7497 9.69581 21.7496C9.36422 21.7495 9.04626 21.6177 8.81188 21.3831C8.57749 21.1486 8.44588 20.8305 8.446 20.4989C8.44612 20.1673 8.57795 19.8494 8.8125 19.615L17.285 11.1425Z" fill="black"/>
</svg>
